
<svg height="95" width="738.177" xmlns="http://www.w3.org/2000/svg" xmlns:svg="http://www.w3.org/2000/svg" xmlns:xlink="http://www.w3.org/1999/xlink">
	<rect height="95" id="1-0-0" style="fill: rgb(255,255,255); fill-opacity: 1.0; stroke: rgb(255,255,255); stroke-opacity: 1.0; stroke-width: 1" width="738.177" x="0" y="0" />
	<text fill="rgb(0,0,0)" fill-opacity="1" font-family="Times New Roman" font-size="12" font-style="Normal" font-weight="Normal" id="2-12.5-43.936" transform="translate(12.5,43.936) rotate(0)">test1.fasta</text>
	<text fill="rgb(153,153,153)" fill-opacity="1" font-family="Times New Roman" font-size="6" font-style="Normal" font-weight="Normal" id="3-93.6645-32" transform="translate(93.6645,32) rotate(-30)">test1.fasta_383</text>
	<polygon id="4-97.627-40" points="97.627,40 93.627,28 93.627,34 89.702,34 89.702,46 93.627,46 93.627,52 " style="fill: rgb(255,255,255); fill-opacity: 1.0; stroke: rgb(255,255,255); stroke-opacity: 1.0; stroke-width: 1" />
	<polygon id="5-97.627-40" points="97.627,40 93.627,28 93.627,34 89.702,34 89.702,46 93.627,46 93.627,52 " style="fill: none; fill-opacity: 1.0; stroke: rgb(0,0,0); stroke-opacity: 1.0; stroke-width: 1" />
	<polygon id="6-97.627-40" points="97.627,40 93.627,28 93.627,34 89.702,34 89.702,46 93.627,46 93.627,52 " style="fill: none; fill-opacity: 1.0; stroke: rgb(153,153,153); stroke-opacity: 1.0; stroke-width: 1" />
	<text fill="rgb(153,153,153)" fill-opacity="1" font-family="Times New Roman" font-size="6" font-style="Normal" font-weight="Normal" id="7-125.877-32" transform="translate(125.877,32) rotate(-30)">test1.fasta_384</text>
	<polygon id="8-154.027-40" points="154.027,40 150.027,28 150.027,34 97.727,34 97.727,46 150.027,46 150.027,52 " style="fill: rgb(255,255,255); fill-opacity: 1.0; stroke: rgb(255,255,255); stroke-opacity: 1.0; stroke-width: 1" />
	<polygon id="9-154.027-40" points="154.027,40 150.027,28 150.027,34 97.727,34 97.727,46 150.027,46 150.027,52 " style="fill: none; fill-opacity: 1.0; stroke: rgb(0,0,0); stroke-opacity: 1.0; stroke-width: 1" />
	<polygon id="10-154.027-40" points="154.027,40 150.027,28 150.027,34 97.727,34 97.727,46 150.027,46 150.027,52 " style="fill: none; fill-opacity: 1.0; stroke: rgb(153,153,153); stroke-opacity: 1.0; stroke-width: 1" />
	<text fill="rgb(153,153,153)" fill-opacity="1" font-family="Times New Roman" font-size="6" font-style="Normal" font-weight="Normal" id="11-166.327-32" transform="translate(166.327,32) rotate(-30)">test1.fasta_385</text>
	<polygon id="12-178.577-40" points="178.577,40 174.577,28 174.577,34 154.077,34 154.077,46 174.577,46 174.577,52 " style="fill: rgb(255,255,255); fill-opacity: 1.0; stroke: rgb(255,255,255); stroke-opacity: 1.0; stroke-width: 1" />
	<polygon id="13-178.577-40" points="178.577,40 174.577,28 174.577,34 154.077,34 154.077,46 174.577,46 174.577,52 " style="fill: none; fill-opacity: 1.0; stroke: rgb(0,0,0); stroke-opacity: 1.0; stroke-width: 1" />
	<polygon id="14-178.577-40" points="178.577,40 174.577,28 174.577,34 154.077,34 154.077,46 174.577,46 174.577,52 " style="fill: none; fill-opacity: 1.0; stroke: rgb(153,153,153); stroke-opacity: 1.0; stroke-width: 1" />
	<text fill="rgb(153,153,153)" fill-opacity="1" font-family="Times New Roman" font-size="6" font-style="Normal" font-weight="Normal" id="15-189.4895-32" transform="translate(189.4895,32) rotate(-30)">test1.fasta_386</text>
	<polygon id="16-190.602-40" points="190.602,40 186.602,28 186.602,34 188.377,34 188.377,46 186.602,46 186.602,52 " style="fill: rgb(255,255,255); fill-opacity: 1.0; stroke: rgb(255,255,255); stroke-opacity: 1.0; stroke-width: 1" />
	<polygon id="17-190.602-40" points="190.602,40 186.602,28 186.602,34 188.377,34 188.377,46 186.602,46 186.602,52 " style="fill: none; fill-opacity: 1.0; stroke: rgb(0,0,0); stroke-opacity: 1.0; stroke-width: 1" />
	<polygon id="18-190.602-40" points="190.602,40 186.602,28 186.602,34 188.377,34 188.377,46 186.602,46 186.602,52 " style="fill: none; fill-opacity: 1.0; stroke: rgb(153,153,153); stroke-opacity: 1.0; stroke-width: 1" />
	<text fill="rgb(153,153,153)" fill-opacity="1" font-family="Times New Roman" font-size="6" font-style="Normal" font-weight="Normal" id="19-218.9895-32" transform="translate(218.9895,32) rotate(-30)">test1.fasta_387</text>
	<polygon id="20-245.302-40" points="245.302,40 241.302,28 241.302,34 192.677,34 192.677,46 241.302,46 241.302,52 " style="fill: rgb(255,255,255); fill-opacity: 1.0; stroke: rgb(255,255,255); stroke-opacity: 1.0; stroke-width: 1" />
	<polygon id="21-245.302-40" points="245.302,40 241.302,28 241.302,34 192.677,34 192.677,46 241.302,46 241.302,52 " style="fill: none; fill-opacity: 1.0; stroke: rgb(0,0,0); stroke-opacity: 1.0; stroke-width: 1" />
	<polygon id="22-245.302-40" points="245.302,40 241.302,28 241.302,34 192.677,34 192.677,46 241.302,46 241.302,52 " style="fill: none; fill-opacity: 1.0; stroke: rgb(153,153,153); stroke-opacity: 1.0; stroke-width: 1" />
	<text fill="rgb(153,153,153)" fill-opacity="1" font-family="Times New Roman" font-size="6" font-style="Normal" font-weight="Normal" id="23-258.702-32" transform="translate(258.702,32) rotate(-30)">test1.fasta_388</text>
	<polygon id="24-252.677-40" points="252.677,40 256.677,28 256.677,34 264.727,34 264.727,46 256.677,46 256.677,52 " style="fill: rgb(255,255,255); fill-opacity: 1.0; stroke: rgb(255,255,255); stroke-opacity: 1.0; stroke-width: 1" />
	<polygon id="25-252.677-40" points="252.677,40 256.677,28 256.677,34 264.727,34 264.727,46 256.677,46 256.677,52 " style="fill: none; fill-opacity: 1.0; stroke: rgb(0,0,0); stroke-opacity: 1.0; stroke-width: 1" />
	<polygon id="26-252.677-40" points="252.677,40 256.677,28 256.677,34 264.727,34 264.727,46 256.677,46 256.677,52 " style="fill: none; fill-opacity: 1.0; stroke: rgb(153,153,153); stroke-opacity: 1.0; stroke-width: 1" />
	<text fill="rgb(153,153,153)" fill-opacity="1" font-family="Times New Roman" font-size="6" font-style="Normal" font-weight="Normal" id="27-285.652-32" transform="translate(285.652,32) rotate(-30)">test1.fasta_389</text>
	<polygon id="28-267.102-40" points="267.102,40 271.102,28 271.102,34 304.202,34 304.202,46 271.102,46 271.102,52 " style="fill: rgb(255,255,255); fill-opacity: 1.0; stroke: rgb(255,255,255); stroke-opacity: 1.0; stroke-width: 1" />
	<polygon id="29-267.102-40" points="267.102,40 271.102,28 271.102,34 304.202,34 304.202,46 271.102,46 271.102,52 " style="fill: none; fill-opacity: 1.0; stroke: rgb(0,0,0); stroke-opacity: 1.0; stroke-width: 1" />
	<polygon id="30-267.102-40" points="267.102,40 271.102,28 271.102,34 304.202,34 304.202,46 271.102,46 271.102,52 " style="fill: none; fill-opacity: 1.0; stroke: rgb(153,153,153); stroke-opacity: 1.0; stroke-width: 1" />
	<text fill="rgb(153,153,153)" fill-opacity="1" font-family="Times New Roman" font-size="6" font-style="Normal" font-weight="Normal" id="31-328.1145-32" transform="translate(328.1145,32) rotate(-30)">test1.fasta_390</text>
	<polygon id="32-348.202-40" points="348.202,40 344.202,28 344.202,34 308.027,34 308.027,46 344.202,46 344.202,52 " style="fill: rgb(255,255,255); fill-opacity: 1.0; stroke: rgb(255,255,255); stroke-opacity: 1.0; stroke-width: 1" />
	<polygon id="33-348.202-40" points="348.202,40 344.202,28 344.202,34 308.027,34 308.027,46 344.202,46 344.202,52 " style="fill: none; fill-opacity: 1.0; stroke: rgb(0,0,0); stroke-opacity: 1.0; stroke-width: 1" />
	<polygon id="34-348.202-40" points="348.202,40 344.202,28 344.202,34 308.027,34 308.027,46 344.202,46 344.202,52 " style="fill: none; fill-opacity: 1.0; stroke: rgb(153,153,153); stroke-opacity: 1.0; stroke-width: 1" />
	<text fill="rgb(153,153,153)" fill-opacity="1" font-family="Times New Roman" font-size="6" font-style="Normal" font-weight="Normal" id="35-365.027-32" transform="translate(365.027,32) rotate(-30)">test1.fasta_391</text>
	<polygon id="36-368.277-40" points="368.277,40 364.277,28 364.277,34 361.777,34 361.777,46 364.277,46 364.277,52 " style="fill: rgb(255,255,255); fill-opacity: 1.0; stroke: rgb(255,255,255); stroke-opacity: 1.0; stroke-width: 1" />
	<polygon id="37-368.277-40" points="368.277,40 364.277,28 364.277,34 361.777,34 361.777,46 364.277,46 364.277,52 " style="fill: none; fill-opacity: 1.0; stroke: rgb(0,0,0); stroke-opacity: 1.0; stroke-width: 1" />
	<polygon id="38-368.277-40" points="368.277,40 364.277,28 364.277,34 361.777,34 361.777,46 364.277,46 364.277,52 " style="fill: none; fill-opacity: 1.0; stroke: rgb(153,153,153); stroke-opacity: 1.0; stroke-width: 1" />
	<text fill="rgb(153,153,153)" fill-opacity="1" font-family="Times New Roman" font-size="6" font-style="Normal" font-weight="Normal" id="39-373.3645-32" transform="translate(373.3645,32) rotate(-30)">test1.fasta_392</text>
	<polygon id="40-369.252-40" points="369.252,40 373.252,28 373.252,34 377.477,34 377.477,46 373.252,46 373.252,52 " style="fill: rgb(255,255,255); fill-opacity: 1.0; stroke: rgb(255,255,255); stroke-opacity: 1.0; stroke-width: 1" />
	<polygon id="41-369.252-40" points="369.252,40 373.252,28 373.252,34 377.477,34 377.477,46 373.252,46 373.252,52 " style="fill: none; fill-opacity: 1.0; stroke: rgb(0,0,0); stroke-opacity: 1.0; stroke-width: 1" />
	<polygon id="42-369.252-40" points="369.252,40 373.252,28 373.252,34 377.477,34 377.477,46 373.252,46 373.252,52 " style="fill: none; fill-opacity: 1.0; stroke: rgb(153,153,153); stroke-opacity: 1.0; stroke-width: 1" />
	<text fill="rgb(153,153,153)" fill-opacity="1" font-family="Times New Roman" font-size="6" font-style="Normal" font-weight="Normal" id="43-401.7645-32" transform="translate(401.7645,32) rotate(-30)">test1.fasta_393</text>
	<polygon id="44-419.827-40" points="419.827,40 415.827,28 415.827,34 383.702,34 383.702,46 415.827,46 415.827,52 " style="fill: rgb(255,255,255); fill-opacity: 1.0; stroke: rgb(255,255,255); stroke-opacity: 1.0; stroke-width: 1" />
	<polygon id="45-419.827-40" points="419.827,40 415.827,28 415.827,34 383.702,34 383.702,46 415.827,46 415.827,52 " style="fill: none; fill-opacity: 1.0; stroke: rgb(0,0,0); stroke-opacity: 1.0; stroke-width: 1" />
	<polygon id="46-419.827-40" points="419.827,40 415.827,28 415.827,34 383.702,34 383.702,46 415.827,46 415.827,52 " style="fill: none; fill-opacity: 1.0; stroke: rgb(153,153,153); stroke-opacity: 1.0; stroke-width: 1" />
	<text fill="rgb(153,153,153)" fill-opacity="1" font-family="Times New Roman" font-size="6" font-style="Normal" font-weight="Normal" id="47-429.0145-32" transform="translate(429.0145,32) rotate(-30)">test1.fasta_394</text>
	<polygon id="48-438.152-40" points="438.152,40 434.152,28 434.152,34 419.877,34 419.877,46 434.152,46 434.152,52 " style="fill: rgb(255,255,255); fill-opacity: 1.0; stroke: rgb(255,255,255); stroke-opacity: 1.0; stroke-width: 1" />
	<polygon id="49-438.152-40" points="438.152,40 434.152,28 434.152,34 419.877,34 419.877,46 434.152,46 434.152,52 " style="fill: none; fill-opacity: 1.0; stroke: rgb(0,0,0); stroke-opacity: 1.0; stroke-width: 1" />
	<polygon id="50-438.152-40" points="438.152,40 434.152,28 434.152,34 419.877,34 419.877,46 434.152,46 434.152,52 " style="fill: none; fill-opacity: 1.0; stroke: rgb(153,153,153); stroke-opacity: 1.0; stroke-width: 1" />
	<text fill="rgb(153,153,153)" fill-opacity="1" font-family="Times New Roman" font-size="6" font-style="Normal" font-weight="Normal" id="51-447.027-32" transform="translate(447.027,32) rotate(-30)">test1.fasta_395</text>
	<polygon id="52-455.677-40" points="455.677,40 451.677,28 451.677,34 438.377,34 438.377,46 451.677,46 451.677,52 " style="fill: rgb(255,255,255); fill-opacity: 1.0; stroke: rgb(255,255,255); stroke-opacity: 1.0; stroke-width: 1" />
	<polygon id="53-455.677-40" points="455.677,40 451.677,28 451.677,34 438.377,34 438.377,46 451.677,46 451.677,52 " style="fill: none; fill-opacity: 1.0; stroke: rgb(0,0,0); stroke-opacity: 1.0; stroke-width: 1" />
	<polygon id="54-455.677-40" points="455.677,40 451.677,28 451.677,34 438.377,34 438.377,46 451.677,46 451.677,52 " style="fill: none; fill-opacity: 1.0; stroke: rgb(153,153,153); stroke-opacity: 1.0; stroke-width: 1" />
	<text fill="rgb(153,153,153)" fill-opacity="1" font-family="Times New Roman" font-size="6" font-style="Normal" font-weight="Normal" id="55-464.4645-32" transform="translate(464.4645,32) rotate(-30)">test1.fasta_396</text>
	<polygon id="56-473.002-40" points="473.002,40 469.002,28 469.002,34 455.927,34 455.927,46 469.002,46 469.002,52 " style="fill: rgb(255,255,255); fill-opacity: 1.0; stroke: rgb(255,255,255); stroke-opacity: 1.0; stroke-width: 1" />
	<polygon id="57-473.002-40" points="473.002,40 469.002,28 469.002,34 455.927,34 455.927,46 469.002,46 469.002,52 " style="fill: none; fill-opacity: 1.0; stroke: rgb(0,0,0); stroke-opacity: 1.0; stroke-width: 1" />
	<polygon id="58-473.002-40" points="473.002,40 469.002,28 469.002,34 455.927,34 455.927,46 469.002,46 469.002,52 " style="fill: none; fill-opacity: 1.0; stroke: rgb(153,153,153); stroke-opacity: 1.0; stroke-width: 1" />
	<text fill="rgb(153,153,153)" fill-opacity="1" font-family="Times New Roman" font-size="6" font-style="Normal" font-weight="Normal" id="59-490.4895-32" transform="translate(490.4895,32) rotate(-30)">test1.fasta_397</text>
	<polygon id="60-507.577-40" points="507.577,40 503.577,28 503.577,34 473.402,34 473.402,46 503.577,46 503.577,52 " style="fill: rgb(255,255,255); fill-opacity: 1.0; stroke: rgb(255,255,255); stroke-opacity: 1.0; stroke-width: 1" />
	<polygon id="61-507.577-40" points="507.577,40 503.577,28 503.577,34 473.402,34 473.402,46 503.577,46 503.577,52 " style="fill: none; fill-opacity: 1.0; stroke: rgb(0,0,0); stroke-opacity: 1.0; stroke-width: 1" />
	<polygon id="62-507.577-40" points="507.577,40 503.577,28 503.577,34 473.402,34 473.402,46 503.577,46 503.577,52 " style="fill: none; fill-opacity: 1.0; stroke: rgb(153,153,153); stroke-opacity: 1.0; stroke-width: 1" />
	<text fill="rgb(153,153,153)" fill-opacity="1" font-family="Times New Roman" font-size="6" font-style="Normal" font-weight="Normal" id="63-516.9645-32" transform="translate(516.9645,32) rotate(-30)">test1.fasta_398</text>
	<polygon id="64-526.252-40" points="526.252,40 522.252,28 522.252,34 507.677,34 507.677,46 522.252,46 522.252,52 " style="fill: rgb(255,255,255); fill-opacity: 1.0; stroke: rgb(255,255,255); stroke-opacity: 1.0; stroke-width: 1" />
	<polygon id="65-526.252-40" points="526.252,40 522.252,28 522.252,34 507.677,34 507.677,46 522.252,46 522.252,52 " style="fill: none; fill-opacity: 1.0; stroke: rgb(0,0,0); stroke-opacity: 1.0; stroke-width: 1" />
	<polygon id="66-526.252-40" points="526.252,40 522.252,28 522.252,34 507.677,34 507.677,46 522.252,46 522.252,52 " style="fill: none; fill-opacity: 1.0; stroke: rgb(153,153,153); stroke-opacity: 1.0; stroke-width: 1" />
	<text fill="rgb(153,153,153)" fill-opacity="1" font-family="Times New Roman" font-size="6" font-style="Normal" font-weight="Normal" id="67-536.6645-32" transform="translate(536.6645,32) rotate(-30)">test1.fasta_399</text>
	<polygon id="68-546.777-40" points="546.777,40 542.777,28 542.777,34 526.552,34 526.552,46 542.777,46 542.777,52 " style="fill: rgb(255,255,255); fill-opacity: 1.0; stroke: rgb(255,255,255); stroke-opacity: 1.0; stroke-width: 1" />
	<polygon id="69-546.777-40" points="546.777,40 542.777,28 542.777,34 526.552,34 526.552,46 542.777,46 542.777,52 " style="fill: none; fill-opacity: 1.0; stroke: rgb(0,0,0); stroke-opacity: 1.0; stroke-width: 1" />
	<polygon id="70-546.777-40" points="546.777,40 542.777,28 542.777,34 526.552,34 526.552,46 542.777,46 542.777,52 " style="fill: none; fill-opacity: 1.0; stroke: rgb(153,153,153); stroke-opacity: 1.0; stroke-width: 1" />
	<text fill="rgb(153,153,153)" fill-opacity="1" font-family="Times New Roman" font-size="6" font-style="Normal" font-weight="Normal" id="71-557.802-32" transform="translate(557.802,32) rotate(-30)">test1.fasta_400</text>
	<polygon id="72-568.777-40" points="568.777,40 564.777,28 564.777,34 546.827,34 546.827,46 564.777,46 564.777,52 " style="fill: rgb(255,255,255); fill-opacity: 1.0; stroke: rgb(255,255,255); stroke-opacity: 1.0; stroke-width: 1" />
	<polygon id="73-568.777-40" points="568.777,40 564.777,28 564.777,34 546.827,34 546.827,46 564.777,46 564.777,52 " style="fill: none; fill-opacity: 1.0; stroke: rgb(0,0,0); stroke-opacity: 1.0; stroke-width: 1" />
	<polygon id="74-568.777-40" points="568.777,40 564.777,28 564.777,34 546.827,34 546.827,46 564.777,46 564.777,52 " style="fill: none; fill-opacity: 1.0; stroke: rgb(153,153,153); stroke-opacity: 1.0; stroke-width: 1" />
	<text fill="rgb(153,153,153)" fill-opacity="1" font-family="Times New Roman" font-size="6" font-style="Normal" font-weight="Normal" id="75-585.5145-32" transform="translate(585.5145,32) rotate(-30)">test1.fasta_401</text>
	<polygon id="76-602.227-40" points="602.227,40 598.227,28 598.227,34 568.802,34 568.802,46 598.227,46 598.227,52 " style="fill: rgb(255,255,255); fill-opacity: 1.0; stroke: rgb(255,255,255); stroke-opacity: 1.0; stroke-width: 1" />
	<polygon id="77-602.227-40" points="602.227,40 598.227,28 598.227,34 568.802,34 568.802,46 598.227,46 598.227,52 " style="fill: none; fill-opacity: 1.0; stroke: rgb(0,0,0); stroke-opacity: 1.0; stroke-width: 1" />
	<polygon id="78-602.227-40" points="602.227,40 598.227,28 598.227,34 568.802,34 568.802,46 598.227,46 598.227,52 " style="fill: none; fill-opacity: 1.0; stroke: rgb(153,153,153); stroke-opacity: 1.0; stroke-width: 1" />
	<text fill="rgb(153,153,153)" fill-opacity="1" font-family="Times New Roman" font-size="6" font-style="Normal" font-weight="Normal" id="79-620.5645-32" transform="translate(620.5645,32) rotate(-30)">test1.fasta_402</text>
	<polygon id="80-638.327-40" points="638.327,40 634.327,28 634.327,34 602.802,34 602.802,46 634.327,46 634.327,52 " style="fill: rgb(255,255,255); fill-opacity: 1.0; stroke: rgb(255,255,255); stroke-opacity: 1.0; stroke-width: 1" />
	<polygon id="81-638.327-40" points="638.327,40 634.327,28 634.327,34 602.802,34 602.802,46 634.327,46 634.327,52 " style="fill: none; fill-opacity: 1.0; stroke: rgb(0,0,0); stroke-opacity: 1.0; stroke-width: 1" />
	<polygon id="82-638.327-40" points="638.327,40 634.327,28 634.327,34 602.802,34 602.802,46 634.327,46 634.327,52 " style="fill: none; fill-opacity: 1.0; stroke: rgb(153,153,153); stroke-opacity: 1.0; stroke-width: 1" />
	<text fill="rgb(153,153,153)" fill-opacity="1" font-family="Times New Roman" font-size="6" font-style="Normal" font-weight="Normal" id="83-653.527-32" transform="translate(653.527,32) rotate(-30)">test1.fasta_403</text>
	<polygon id="84-667.127-40" points="667.127,40 663.127,28 663.127,34 639.927,34 639.927,46 663.127,46 663.127,52 " style="fill: rgb(255,255,255); fill-opacity: 1.0; stroke: rgb(255,255,255); stroke-opacity: 1.0; stroke-width: 1" />
	<polygon id="85-667.127-40" points="667.127,40 663.127,28 663.127,34 639.927,34 639.927,46 663.127,46 663.127,52 " style="fill: none; fill-opacity: 1.0; stroke: rgb(0,0,0); stroke-opacity: 1.0; stroke-width: 1" />
	<polygon id="86-667.127-40" points="667.127,40 663.127,28 663.127,34 639.927,34 639.927,46 663.127,46 663.127,52 " style="fill: none; fill-opacity: 1.0; stroke: rgb(153,153,153); stroke-opacity: 1.0; stroke-width: 1" />
	<text fill="rgb(0,0,0)" fill-opacity="1" font-family="Times New Roman" font-size="12" font-style="Normal" font-weight="Normal" id="87-12.5-78.936" transform="translate(12.5,78.936) rotate(0)">test2.gbk</text>
	<text fill="rgb(153,153,153)" fill-opacity="1" font-family="Times New Roman" font-size="6" font-style="Normal" font-weight="Normal" id="88-682.677-67" transform="translate(682.677,67) rotate(-30)">test2.gbk_617</text>
	<polygon id="89-697.027-75" points="697.027,75 693.027,63 693.027,69 668.327,69 668.327,81 693.027,81 693.027,87 " style="fill: rgb(255,255,255); fill-opacity: 1.0; stroke: rgb(255,255,255); stroke-opacity: 1.0; stroke-width: 1" />
	<polygon id="90-697.027-75" points="697.027,75 693.027,63 693.027,69 668.327,69 668.327,81 693.027,81 693.027,87 " style="fill: none; fill-opacity: 1.0; stroke: rgb(0,0,0); stroke-opacity: 1.0; stroke-width: 1" />
	<polygon id="91-697.027-75" points="697.027,75 693.027,63 693.027,69 668.327,69 668.327,81 693.027,81 693.027,87 " style="fill: none; fill-opacity: 1.0; stroke: rgb(153,153,153); stroke-opacity: 1.0; stroke-width: 1" />
	<text fill="rgb(153,153,153)" fill-opacity="1" font-family="Times New Roman" font-size="6" font-style="Normal" font-weight="Normal" id="92-650.8145-67" transform="translate(650.8145,67) rotate(-30)">test2.gbk_618</text>
	<polygon id="93-668.127-75" points="668.127,75 664.127,63 664.127,69 633.502,69 633.502,81 664.127,81 664.127,87 " style="fill: rgb(255,255,255); fill-opacity: 1.0; stroke: rgb(255,255,255); stroke-opacity: 1.0; stroke-width: 1" />
	<polygon id="94-668.127-75" points="668.127,75 664.127,63 664.127,69 633.502,69 633.502,81 664.127,81 664.127,87 " style="fill: none; fill-opacity: 1.0; stroke: rgb(0,0,0); stroke-opacity: 1.0; stroke-width: 1" />
	<polygon id="95-668.127-75" points="668.127,75 664.127,63 664.127,69 633.502,69 633.502,81 664.127,81 664.127,87 " style="fill: none; fill-opacity: 1.0; stroke: rgb(153,153,153); stroke-opacity: 1.0; stroke-width: 1" />
	<text fill="rgb(153,153,153)" fill-opacity="1" font-family="Times New Roman" font-size="6" font-style="Normal" font-weight="Normal" id="96-618.052-67" transform="translate(618.052,67) rotate(-30)">test2.gbk_619</text>
	<polygon id="97-633.452-75" points="633.452,75 629.452,63 629.452,69 602.652,69 602.652,81 629.452,81 629.452,87 " style="fill: rgb(255,255,255); fill-opacity: 1.0; stroke: rgb(255,255,255); stroke-opacity: 1.0; stroke-width: 1" />
	<polygon id="98-633.452-75" points="633.452,75 629.452,63 629.452,69 602.652,69 602.652,81 629.452,81 629.452,87 " style="fill: none; fill-opacity: 1.0; stroke: rgb(0,0,0); stroke-opacity: 1.0; stroke-width: 1" />
	<polygon id="99-633.452-75" points="633.452,75 629.452,63 629.452,69 602.652,69 602.652,81 629.452,81 629.452,87 " style="fill: none; fill-opacity: 1.0; stroke: rgb(153,153,153); stroke-opacity: 1.0; stroke-width: 1" />
	<text fill="rgb(153,153,153)" fill-opacity="1" font-family="Times New Roman" font-size="6" font-style="Normal" font-weight="Normal" id="100-590.3395-67" transform="translate(590.3395,67) rotate(-30)">test2.gbk_620</text>
	<polygon id="101-602.477-75" points="602.477,75 598.477,63 598.477,69 578.202,69 578.202,81 598.477,81 598.477,87 " style="fill: rgb(255,255,255); fill-opacity: 1.0; stroke: rgb(255,255,255); stroke-opacity: 1.0; stroke-width: 1" />
	<polygon id="102-602.477-75" points="602.477,75 598.477,63 598.477,69 578.202,69 578.202,81 598.477,81 598.477,87 " style="fill: none; fill-opacity: 1.0; stroke: rgb(0,0,0); stroke-opacity: 1.0; stroke-width: 1" />
	<polygon id="103-602.477-75" points="602.477,75 598.477,63 598.477,69 578.202,69 578.202,81 598.477,81 598.477,87 " style="fill: none; fill-opacity: 1.0; stroke: rgb(153,153,153); stroke-opacity: 1.0; stroke-width: 1" />
	<text fill="rgb(153,153,153)" fill-opacity="1" font-family="Times New Roman" font-size="6" font-style="Normal" font-weight="Normal" id="104-560.8145-67" transform="translate(560.8145,67) rotate(-30)">test2.gbk_621</text>
	<polygon id="105-578.202-75" points="578.202,75 574.202,63 574.202,69 543.427,69 543.427,81 574.202,81 574.202,87 " style="fill: rgb(255,255,255); fill-opacity: 1.0; stroke: rgb(255,255,255); stroke-opacity: 1.0; stroke-width: 1" />
	<polygon id="106-578.202-75" points="578.202,75 574.202,63 574.202,69 543.427,69 543.427,81 574.202,81 574.202,87 " style="fill: none; fill-opacity: 1.0; stroke: rgb(0,0,0); stroke-opacity: 1.0; stroke-width: 1" />
	<polygon id="107-578.202-75" points="578.202,75 574.202,63 574.202,69 543.427,69 543.427,81 574.202,81 574.202,87 " style="fill: none; fill-opacity: 1.0; stroke: rgb(153,153,153); stroke-opacity: 1.0; stroke-width: 1" />
	<text fill="rgb(153,153,153)" fill-opacity="1" font-family="Times New Roman" font-size="6" font-style="Normal" font-weight="Normal" id="108-523.077-67" transform="translate(523.077,67) rotate(-30)">test2.gbk_622</text>
	<polygon id="109-537.802-75" points="537.802,75 533.802,63 533.802,69 508.352,69 508.352,81 533.802,81 533.802,87 " style="fill: rgb(255,255,255); fill-opacity: 1.0; stroke: rgb(255,255,255); stroke-opacity: 1.0; stroke-width: 1" />
	<polygon id="110-537.802-75" points="537.802,75 533.802,63 533.802,69 508.352,69 508.352,81 533.802,81 533.802,87 " style="fill: none; fill-opacity: 1.0; stroke: rgb(0,0,0); stroke-opacity: 1.0; stroke-width: 1" />
	<polygon id="111-537.802-75" points="537.802,75 533.802,63 533.802,69 508.352,69 508.352,81 533.802,81 533.802,87 " style="fill: none; fill-opacity: 1.0; stroke: rgb(153,153,153); stroke-opacity: 1.0; stroke-width: 1" />
	<text fill="rgb(153,153,153)" fill-opacity="1" font-family="Times New Roman" font-size="6" font-style="Normal" font-weight="Normal" id="112-490.4895-67" transform="translate(490.4895,67) rotate(-30)">test2.gbk_623</text>
	<polygon id="113-507.577-75" points="507.577,75 503.577,63 503.577,69 473.402,69 473.402,81 503.577,81 503.577,87 " style="fill: rgb(255,255,255); fill-opacity: 1.0; stroke: rgb(255,255,255); stroke-opacity: 1.0; stroke-width: 1" />
	<polygon id="114-507.577-75" points="507.577,75 503.577,63 503.577,69 473.402,69 473.402,81 503.577,81 503.577,87 " style="fill: none; fill-opacity: 1.0; stroke: rgb(0,0,0); stroke-opacity: 1.0; stroke-width: 1" />
	<polygon id="115-507.577-75" points="507.577,75 503.577,63 503.577,69 473.402,69 473.402,81 503.577,81 503.577,87 " style="fill: none; fill-opacity: 1.0; stroke: rgb(153,153,153); stroke-opacity: 1.0; stroke-width: 1" />
	<text fill="rgb(153,153,153)" fill-opacity="1" font-family="Times New Roman" font-size="6" font-style="Normal" font-weight="Normal" id="116-464.4645-67" transform="translate(464.4645,67) rotate(-30)">test2.gbk_624</text>
	<polygon id="117-473.002-75" points="473.002,75 469.002,63 469.002,69 455.927,69 455.927,81 469.002,81 469.002,87 " style="fill: rgb(255,255,255); fill-opacity: 1.0; stroke: rgb(255,255,255); stroke-opacity: 1.0; stroke-width: 1" />
	<polygon id="118-473.002-75" points="473.002,75 469.002,63 469.002,69 455.927,69 455.927,81 469.002,81 469.002,87 " style="fill: none; fill-opacity: 1.0; stroke: rgb(0,0,0); stroke-opacity: 1.0; stroke-width: 1" />
	<polygon id="119-473.002-75" points="473.002,75 469.002,63 469.002,69 455.927,69 455.927,81 469.002,81 469.002,87 " style="fill: none; fill-opacity: 1.0; stroke: rgb(153,153,153); stroke-opacity: 1.0; stroke-width: 1" />
	<text fill="rgb(153,153,153)" fill-opacity="1" font-family="Times New Roman" font-size="6" font-style="Normal" font-weight="Normal" id="120-447.027-67" transform="translate(447.027,67) rotate(-30)">test2.gbk_625</text>
	<polygon id="121-455.677-75" points="455.677,75 451.677,63 451.677,69 438.377,69 438.377,81 451.677,81 451.677,87 " style="fill: rgb(255,255,255); fill-opacity: 1.0; stroke: rgb(255,255,255); stroke-opacity: 1.0; stroke-width: 1" />
	<polygon id="122-455.677-75" points="455.677,75 451.677,63 451.677,69 438.377,69 438.377,81 451.677,81 451.677,87 " style="fill: none; fill-opacity: 1.0; stroke: rgb(0,0,0); stroke-opacity: 1.0; stroke-width: 1" />
	<polygon id="123-455.677-75" points="455.677,75 451.677,63 451.677,69 438.377,69 438.377,81 451.677,81 451.677,87 " style="fill: none; fill-opacity: 1.0; stroke: rgb(153,153,153); stroke-opacity: 1.0; stroke-width: 1" />
	<text fill="rgb(153,153,153)" fill-opacity="1" font-family="Times New Roman" font-size="6" font-style="Normal" font-weight="Normal" id="124-429.0145-67" transform="translate(429.0145,67) rotate(-30)">test2.gbk_626</text>
	<polygon id="125-438.152-75" points="438.152,75 434.152,63 434.152,69 419.877,69 419.877,81 434.152,81 434.152,87 " style="fill: rgb(255,255,255); fill-opacity: 1.0; stroke: rgb(255,255,255); stroke-opacity: 1.0; stroke-width: 1" />
	<polygon id="126-438.152-75" points="438.152,75 434.152,63 434.152,69 419.877,69 419.877,81 434.152,81 434.152,87 " style="fill: none; fill-opacity: 1.0; stroke: rgb(0,0,0); stroke-opacity: 1.0; stroke-width: 1" />
	<polygon id="127-438.152-75" points="438.152,75 434.152,63 434.152,69 419.877,69 419.877,81 434.152,81 434.152,87 " style="fill: none; fill-opacity: 1.0; stroke: rgb(153,153,153); stroke-opacity: 1.0; stroke-width: 1" />
	<text fill="rgb(153,153,153)" fill-opacity="1" font-family="Times New Roman" font-size="6" font-style="Normal" font-weight="Normal" id="128-401.7645-67" transform="translate(401.7645,67) rotate(-30)">test2.gbk_627</text>
	<polygon id="129-419.827-75" points="419.827,75 415.827,63 415.827,69 383.702,69 383.702,81 415.827,81 415.827,87 " style="fill: rgb(255,255,255); fill-opacity: 1.0; stroke: rgb(255,255,255); stroke-opacity: 1.0; stroke-width: 1" />
	<polygon id="130-419.827-75" points="419.827,75 415.827,63 415.827,69 383.702,69 383.702,81 415.827,81 415.827,87 " style="fill: none; fill-opacity: 1.0; stroke: rgb(0,0,0); stroke-opacity: 1.0; stroke-width: 1" />
	<polygon id="131-419.827-75" points="419.827,75 415.827,63 415.827,69 383.702,69 383.702,81 415.827,81 415.827,87 " style="fill: none; fill-opacity: 1.0; stroke: rgb(153,153,153); stroke-opacity: 1.0; stroke-width: 1" />
	<text fill="rgb(153,153,153)" fill-opacity="1" font-family="Times New Roman" font-size="6" font-style="Normal" font-weight="Normal" id="132-369.302-67" transform="translate(369.302,67) rotate(-30)">test2.gbk_628</text>
	<polygon id="133-365.077-75" points="365.077,75 369.077,63 369.077,69 373.527,69 373.527,81 369.077,81 369.077,87 " style="fill: rgb(255,255,255); fill-opacity: 1.0; stroke: rgb(255,255,255); stroke-opacity: 1.0; stroke-width: 1" />
	<polygon id="134-365.077-75" points="365.077,75 369.077,63 369.077,69 373.527,69 373.527,81 369.077,81 369.077,87 " style="fill: none; fill-opacity: 1.0; stroke: rgb(0,0,0); stroke-opacity: 1.0; stroke-width: 1" />
	<polygon id="135-365.077-75" points="365.077,75 369.077,63 369.077,69 373.527,69 373.527,81 369.077,81 369.077,87 " style="fill: none; fill-opacity: 1.0; stroke: rgb(153,153,153); stroke-opacity: 1.0; stroke-width: 1" />
	<text fill="rgb(153,153,153)" fill-opacity="1" font-family="Times New Roman" font-size="6" font-style="Normal" font-weight="Normal" id="136-336.8645-67" transform="translate(336.8645,67) rotate(-30)">test2.gbk_629</text>
	<polygon id="137-356.952-75" points="356.952,75 352.952,63 352.952,69 316.777,69 316.777,81 352.952,81 352.952,87 " style="fill: rgb(255,255,255); fill-opacity: 1.0; stroke: rgb(255,255,255); stroke-opacity: 1.0; stroke-width: 1" />
	<polygon id="138-356.952-75" points="356.952,75 352.952,63 352.952,69 316.777,69 316.777,81 352.952,81 352.952,87 " style="fill: none; fill-opacity: 1.0; stroke: rgb(0,0,0); stroke-opacity: 1.0; stroke-width: 1" />
	<polygon id="139-356.952-75" points="356.952,75 352.952,63 352.952,69 316.777,69 316.777,81 352.952,81 352.952,87 " style="fill: none; fill-opacity: 1.0; stroke: rgb(153,153,153); stroke-opacity: 1.0; stroke-width: 1" />
	<text fill="rgb(153,153,153)" fill-opacity="1" font-family="Times New Roman" font-size="6" font-style="Normal" font-weight="Normal" id="140-294.402-67" transform="translate(294.402,67) rotate(-30)">test2.gbk_630</text>
	<polygon id="141-275.852-75" points="275.852,75 279.852,63 279.852,69 312.952,69 312.952,81 279.852,81 279.852,87 " style="fill: rgb(255,255,255); fill-opacity: 1.0; stroke: rgb(255,255,255); stroke-opacity: 1.0; stroke-width: 1" />
	<polygon id="142-275.852-75" points="275.852,75 279.852,63 279.852,69 312.952,69 312.952,81 279.852,81 279.852,87 " style="fill: none; fill-opacity: 1.0; stroke: rgb(0,0,0); stroke-opacity: 1.0; stroke-width: 1" />
	<polygon id="143-275.852-75" points="275.852,75 279.852,63 279.852,69 312.952,69 312.952,81 279.852,81 279.852,87 " style="fill: none; fill-opacity: 1.0; stroke: rgb(153,153,153); stroke-opacity: 1.0; stroke-width: 1" />
	<text fill="rgb(153,153,153)" fill-opacity="1" font-family="Times New Roman" font-size="6" font-style="Normal" font-weight="Normal" id="144-267.452-67" transform="translate(267.452,67) rotate(-30)">test2.gbk_631</text>
	<polygon id="145-261.427-75" points="261.427,75 265.427,63 265.427,69 273.477,69 273.477,81 265.427,81 265.427,87 " style="fill: rgb(255,255,255); fill-opacity: 1.0; stroke: rgb(255,255,255); stroke-opacity: 1.0; stroke-width: 1" />
	<polygon id="146-261.427-75" points="261.427,75 265.427,63 265.427,69 273.477,69 273.477,81 265.427,81 265.427,87 " style="fill: none; fill-opacity: 1.0; stroke: rgb(0,0,0); stroke-opacity: 1.0; stroke-width: 1" />
	<polygon id="147-261.427-75" points="261.427,75 265.427,63 265.427,69 273.477,69 273.477,81 265.427,81 265.427,87 " style="fill: none; fill-opacity: 1.0; stroke: rgb(153,153,153); stroke-opacity: 1.0; stroke-width: 1" />
	<text fill="rgb(153,153,153)" fill-opacity="1" font-family="Times New Roman" font-size="6" font-style="Normal" font-weight="Normal" id="148-227.7145-67" transform="translate(227.7145,67) rotate(-30)">test2.gbk_632</text>
	<polygon id="149-254.027-75" points="254.027,75 250.027,63 250.027,69 201.402,69 201.402,81 250.027,81 250.027,87 " style="fill: rgb(255,255,255); fill-opacity: 1.0; stroke: rgb(255,255,255); stroke-opacity: 1.0; stroke-width: 1" />
	<polygon id="150-254.027-75" points="254.027,75 250.027,63 250.027,69 201.402,69 201.402,81 250.027,81 250.027,87 " style="fill: none; fill-opacity: 1.0; stroke: rgb(0,0,0); stroke-opacity: 1.0; stroke-width: 1" />
	<polygon id="151-254.027-75" points="254.027,75 250.027,63 250.027,69 201.402,69 201.402,81 250.027,81 250.027,87 " style="fill: none; fill-opacity: 1.0; stroke: rgb(153,153,153); stroke-opacity: 1.0; stroke-width: 1" />
	<text fill="rgb(153,153,153)" fill-opacity="1" font-family="Times New Roman" font-size="6" font-style="Normal" font-weight="Normal" id="152-198.2145-67" transform="translate(198.2145,67) rotate(-30)">test2.gbk_633</text>
	<polygon id="153-199.327-75" points="199.327,75 195.327,63 195.327,69 197.102,69 197.102,81 195.327,81 195.327,87 " style="fill: rgb(255,255,255); fill-opacity: 1.0; stroke: rgb(255,255,255); stroke-opacity: 1.0; stroke-width: 1" />
	<polygon id="154-199.327-75" points="199.327,75 195.327,63 195.327,69 197.102,69 197.102,81 195.327,81 195.327,87 " style="fill: none; fill-opacity: 1.0; stroke: rgb(0,0,0); stroke-opacity: 1.0; stroke-width: 1" />
	<polygon id="155-199.327-75" points="199.327,75 195.327,63 195.327,69 197.102,69 197.102,81 195.327,81 195.327,87 " style="fill: none; fill-opacity: 1.0; stroke: rgb(153,153,153); stroke-opacity: 1.0; stroke-width: 1" />
	<text fill="rgb(153,153,153)" fill-opacity="1" font-family="Times New Roman" font-size="6" font-style="Normal" font-weight="Normal" id="156-173.927-67" transform="translate(173.927,67) rotate(-30)">test2.gbk_634</text>
	<polygon id="157-186.177-75" points="186.177,75 182.177,63 182.177,69 161.677,69 161.677,81 182.177,81 182.177,87 " style="fill: rgb(255,255,255); fill-opacity: 1.0; stroke: rgb(255,255,255); stroke-opacity: 1.0; stroke-width: 1" />
	<polygon id="158-186.177-75" points="186.177,75 182.177,63 182.177,69 161.677,69 161.677,81 182.177,81 182.177,87 " style="fill: none; fill-opacity: 1.0; stroke: rgb(0,0,0); stroke-opacity: 1.0; stroke-width: 1" />
	<polygon id="159-186.177-75" points="186.177,75 182.177,63 182.177,69 161.677,69 161.677,81 182.177,81 182.177,87 " style="fill: none; fill-opacity: 1.0; stroke: rgb(153,153,153); stroke-opacity: 1.0; stroke-width: 1" />
	<text fill="rgb(153,153,153)" fill-opacity="1" font-family="Times New Roman" font-size="6" font-style="Normal" font-weight="Normal" id="160-133.477-67" transform="translate(133.477,67) rotate(-30)">test2.gbk_635</text>
	<polygon id="161-161.627-75" points="161.627,75 157.627,63 157.627,69 105.327,69 105.327,81 157.627,81 157.627,87 " style="fill: rgb(255,255,255); fill-opacity: 1.0; stroke: rgb(255,255,255); stroke-opacity: 1.0; stroke-width: 1" />
	<polygon id="162-161.627-75" points="161.627,75 157.627,63 157.627,69 105.327,69 105.327,81 157.627,81 157.627,87 " style="fill: none; fill-opacity: 1.0; stroke: rgb(0,0,0); stroke-opacity: 1.0; stroke-width: 1" />
	<polygon id="163-161.627-75" points="161.627,75 157.627,63 157.627,69 105.327,69 105.327,81 157.627,81 157.627,87 " style="fill: none; fill-opacity: 1.0; stroke: rgb(153,153,153); stroke-opacity: 1.0; stroke-width: 1" />
	<text fill="rgb(153,153,153)" fill-opacity="1" font-family="Times New Roman" font-size="6" font-style="Normal" font-weight="Normal" id="164-101.2645-67" transform="translate(101.2645,67) rotate(-30)">test2.gbk_636</text>
	<polygon id="165-105.227-75" points="105.227,75 101.227,63 101.227,69 97.302,69 97.302,81 101.227,81 101.227,87 " style="fill: rgb(255,255,255); fill-opacity: 1.0; stroke: rgb(255,255,255); stroke-opacity: 1.0; stroke-width: 1" />
	<polygon id="166-105.227-75" points="105.227,75 101.227,63 101.227,69 97.302,69 97.302,81 101.227,81 101.227,87 " style="fill: none; fill-opacity: 1.0; stroke: rgb(0,0,0); stroke-opacity: 1.0; stroke-width: 1" />
	<polygon id="167-105.227-75" points="105.227,75 101.227,63 101.227,69 97.302,69 97.302,81 101.227,81 101.227,87 " style="fill: none; fill-opacity: 1.0; stroke: rgb(153,153,153); stroke-opacity: 1.0; stroke-width: 1" />
	<text fill="rgb(153,153,153)" fill-opacity="1" font-family="Times New Roman" font-size="6" font-style="Normal" font-weight="Normal" id="168-85.127-67" transform="translate(85.127,67) rotate(-30)">test2.gbk_637</text>
	<polygon id="169-97.002-75" points="97.002,75 93.002,63 93.002,69 73.252,69 73.252,81 93.002,81 93.002,87 " style="fill: rgb(255,255,255); fill-opacity: 1.0; stroke: rgb(255,255,255); stroke-opacity: 1.0; stroke-width: 1" />
	<polygon id="170-97.002-75" points="97.002,75 93.002,63 93.002,69 73.252,69 73.252,81 93.002,81 93.002,87 " style="fill: none; fill-opacity: 1.0; stroke: rgb(0,0,0); stroke-opacity: 1.0; stroke-width: 1" />
	<polygon id="171-97.002-75" points="97.002,75 93.002,63 93.002,69 73.252,69 73.252,81 93.002,81 93.002,87 " style="fill: none; fill-opacity: 1.0; stroke: rgb(153,153,153); stroke-opacity: 1.0; stroke-width: 1" />
	<!--
	Generated using the Perl SVG Module V2.84
	by Ronan Oger
	Info: http://www.roitsystems.com/
	-->
</svg>